<svg xmlns="http://www.w3.org/2000/svg" xmlns:xlink="http://www.w3.org/1999/xlink"  viewBox="0 0 200 200" version="1.1" id="svg_null">
<g id="root" stroke="none" stroke-width="1" fill="none" fill-rule="evenodd">

<g id="shape.primary" transform="" fill="#004a55">
<path d="M164.662 0l-89.688 0l-34.607 32.058l79.451 86.99l79.452 -86.99l-34.608 -32.058zm-4.104 11.775l22.67 20.999l-63.41 69.421l-63.407 -69.421l22.668 -20.999l81.479 0z"/>
<path d="M124.295 0l-89.688 0l-34.607 32.058l79.451 86.99l79.454 -86.99l-34.61 -32.058zm-4.104 11.775l22.67 20.999l-63.41 69.421l-63.407 -69.421l22.668 -20.999l81.479 0z"/>
<polyline points="109.604 17.663 92.789 17.663 109.103 32.776 86.239 57.808 93.934 66.233 125.145 32.059 109.604 17.663"/>
</g>
<text id="headerText.primary" font-family="Cutive Mono" font-size="54" font-weight="400" line-spacing="54" letter-spacing="5.4" fill="#004a55" data-text-alignment="C" font-style="normal">
<tspan x="25" y="170">S &amp; D </tspan>

</text>
</g>
</svg>